# xmcd
#
# Track frame offsets: 
#        150
#        21302
#        44727
#        60352
#        85092
#
# Disc length: 1380 seconds
#
# Revision: 0
# Processed by: cddbd v1.5.1PL0 Copyright (c) Steve Scherf et al.
# Submitted via: ExactAudioCopy v0.95a5
#
DISCID=39056205
DTITLE=The Blackfire Revelation - Gold And Guns On 51
DYEAR=2005
DGENRE=Rock
TTITLE0=Battle Hymn
TTITLE1=Act Like A Believer
TTITLE2=I Want You Right Now
TTITLE3=Preach To The Choir
TTITLE4=Second Time Around
EXTD=
EXTT0=
EXTT1=
EXTT2=
EXTT3=
EXTT4=
PLAYORDER=
